<?xml version="1.0" standalone="no"?>
<!DOCTYPE svg PUBLIC "-//W3C//DTD SVG 20010904//EN"
 "http://www.w3.org/TR/2001/REC-SVG-20010904/DTD/svg10.dtd">
<svg version="1.0" xmlns="http://www.w3.org/2000/svg"
 width="228.000000pt" height="228.000000pt" viewBox="0 0 228.000000 228.000000"
 preserveAspectRatio="xMidYMid meet">
<metadata>
Created by potrace 1.14, written by Peter Selinger 2001-2017
</metadata>
<g transform="translate(0.000000,228.000000) scale(0.100000,-0.100000)"
fill="#000000" stroke="none">
<path d="M0 1140 l0 -1140 1140 0 1140 0 0 1140 0 1140 -1140 0 -1140 0 0
-1140z m1310 1081 c0 -5 -7 -14 -15 -21 -18 -15 -20 -31 -4 -27 6 1 13 -3 16
-10 8 -22 -34 -1 -45 23 -9 19 -8 25 6 33 21 13 42 14 42 2z m-90 -31 c0 -5
-4 -10 -10 -10 -5 0 -10 5 -10 10 0 6 5 10 10 10 6 0 10 -4 10 -10z m-56 -21
c-3 -5 -10 -7 -15 -3 -5 3 -7 10 -3 15 3 5 10 7 15 3 5 -3 7 -10 3 -15z m166
-69 c0 -5 -4 -10 -10 -10 -5 0 -10 5 -10 10 0 6 5 10 10 10 6 0 10 -4 10 -10z
m-30 -180 c0 -5 -4 -10 -10 -10 -5 0 -10 5 -10 10 0 6 5 10 10 10 6 0 10 -4
10 -10z m30 -35 c0 -8 -4 -15 -10 -15 -5 0 -10 7 -10 15 0 8 5 15 10 15 6 0
10 -7 10 -15z m-10 -55 c0 -11 5 -20 10 -20 6 0 2 -10 -10 -22 -25 -27 -31
-21 -23 25 6 39 23 51 23 17z m-42 -62 c-2 -15 2 -23 12 -23 14 -1 17 -31 5
-62 -6 -18 -45 -16 -45 1 0 8 6 13 13 12 22 -2 22 19 0 22 -23 3 -34 42 -13
42 6 0 10 7 10 15 0 8 5 15 11 15 5 0 9 -10 7 -22z m-107 -31 c-13 -13 -26 -3
-16 12 3 6 11 8 17 5 6 -4 6 -10 -1 -17z m-79 -84 c8 -10 18 -26 21 -35 4 -10
14 -18 23 -18 11 0 15 -6 11 -20 -5 -21 7 -28 18 -10 10 17 25 11 25 -10 0
-19 19 -26 58 -21 14 2 17 -55 3 -63 -4 -3 -27 12 -50 33 l-42 39 -33 -23
c-18 -12 -38 -24 -44 -26 -18 -6 9 -50 36 -60 20 -8 22 -6 17 11 -3 11 -2 27
3 36 8 15 10 15 23 -3 17 -23 56 -35 63 -19 3 6 3 0 0 -14 -8 -33 -11 -35 -27
-22 -7 6 -18 7 -26 3 -8 -6 -9 -11 -3 -15 6 -3 10 -20 10 -37 -1 -22 -5 -29
-17 -26 -9 2 -15 8 -14 14 4 18 -67 39 -77 23 -13 -21 -32 0 -26 29 5 18 4 22
-3 12 -7 -12 -13 -12 -24 -3 -12 10 -16 9 -22 -5 -6 -17 -7 -17 -16 0 -8 13
-7 22 1 32 6 8 9 19 5 24 -4 7 1 9 12 5 10 -3 6 3 -10 13 -29 19 -31 39 -3 37
20 -2 21 12 1 20 -18 6 -19 36 -3 71 8 18 19 25 39 25 15 0 31 5 34 10 9 15
20 12 37 -7z m228 -3 c0 -5 -4 -10 -10 -10 -5 0 -10 5 -10 10 0 6 5 10 10 10
6 0 10 -4 10 -10z m-20 -34 c0 -15 -18 -31 -26 -23 -7 7 7 37 17 37 5 0 9 -6
9 -14z m-40 -41 c0 -8 -7 -15 -15 -15 -8 0 -15 7 -15 15 0 8 7 15 15 15 8 0
15 -7 15 -15z m-80 -69 c0 -3 -4 -8 -10 -11 -5 -3 -10 -1 -10 4 0 6 5 11 10
11 6 0 10 -2 10 -4z m110 -10 c0 -3 -4 -8 -10 -11 -5 -3 -10 -1 -10 4 0 6 5
11 10 11 6 0 10 -2 10 -4z m-10 -36 c0 -5 -4 -10 -10 -10 -5 0 -10 -7 -10 -15
0 -19 -16 -19 -24 0 -3 8 2 19 12 24 22 13 32 13 32 1z m-332 -33 c15 -17 -1
-40 -24 -35 -27 5 -32 48 -6 48 11 0 24 -6 30 -13z m-148 -32 c0 -8 -4 -15
-10 -15 -5 0 -10 7 -10 15 0 8 5 15 10 15 6 0 10 -7 10 -15z m470 -10 c0 -8
-4 -15 -10 -15 -5 0 -10 7 -10 15 0 8 5 15 10 15 6 0 10 -7 10 -15z m-210 -25
c10 -10 23 -19 30 -22 7 -2 9 -13 5 -31 -7 -27 -8 -27 -65 -21 -53 5 -59 4
-77 -20 -15 -19 -23 -22 -32 -13 -14 14 -14 19 1 54 12 29 15 38 17 62 1 8 8
11 21 8 11 -3 23 -1 26 4 7 13 53 0 74 -21z m156 -6 c-5 -13 -10 -14 -18 -6
-6 6 -8 18 -4 28 5 13 10 14 18 6 6 -6 8 -18 4 -28z m119 16 c3 -5 1 -10 -4
-10 -6 0 -11 5 -11 10 0 6 2 10 4 10 3 0 8 -4 11 -10z m365 -9 c0 -6 -4 -13
-10 -16 -5 -3 -10 1 -10 9 0 9 5 16 10 16 6 0 10 -4 10 -9z m370 -11 c0 -5 -4
-10 -10 -10 -5 0 -10 5 -10 10 0 6 5 10 10 10 6 0 10 -4 10 -10z m-1187 -40
c3 -10 0 -21 -7 -23 -7 -3 -3 -11 9 -22 11 -9 15 -14 9 -11 -7 3 -9 -3 -6 -19
3 -20 0 -25 -16 -25 -30 0 -45 -23 -28 -45 14 -19 36 -13 36 10 0 11 86 45
114 45 13 0 5 -44 -10 -62 -16 -16 -15 -18 0 -24 15 -6 15 -7 -1 -20 -10 -7
-27 -11 -39 -8 -13 3 -21 0 -22 -8 -3 -37 -22 -80 -22 -49 0 17 -67 81 -76 73
-4 -4 -4 -1 0 6 12 20 -16 71 -46 85 -16 6 -28 18 -28 24 0 7 -5 13 -11 13 -6
0 -9 8 -7 18 2 11 13 17 31 17 26 1 31 -5 28 -35 -2 -12 0 -12 7 -1 6 8 18 11
30 7 14 -5 21 -1 25 14 5 21 -7 28 -18 9 -5 -6 -12 -4 -21 8 -19 25 -17 32 5
26 10 -3 22 0 25 6 11 18 33 13 39 -9z m707 11 c0 -6 -4 -13 -10 -16 -5 -3
-10 1 -10 9 0 9 5 16 10 16 6 0 10 -4 10 -9z m-102 -30 c4 -10 0 -12 -14 -6
-11 4 -24 8 -31 8 -7 0 -10 4 -7 9 9 13 47 5 52 -11z m322 4 c0 -16 -27 -32
-37 -21 -7 7 16 36 28 36 5 0 9 -7 9 -15z m-260 -26 c0 -11 -27 -12 -34 0 -3
4 -3 11 0 14 8 8 34 -3 34 -14z m-386 -8 c3 -5 -3 -20 -14 -32 l-19 -24 -1 33
c0 31 21 45 34 23z m276 -16 c0 -8 -4 -15 -10 -15 -5 0 -10 7 -10 15 0 8 5 15
10 15 6 0 10 -7 10 -15z m-740 -5 c0 -5 -5 -10 -11 -10 -5 0 -7 5 -4 10 3 6 8
10 11 10 2 0 4 -4 4 -10z m350 3 c0 -5 -7 -16 -14 -26 -13 -17 -14 -16 -19 2
-3 11 -2 22 1 25 8 9 32 7 32 -1z m286 -49 c5 -35 3 -49 -11 -64 -17 -19 -17
-20 4 -20 12 0 19 4 16 10 -9 15 27 12 48 -4 24 -18 21 -26 -8 -26 -33 0 -32
-5 10 -45 41 -38 65 -50 65 -32 0 8 4 7 10 -3 7 -11 11 -9 19 13 7 17 24 34
46 43 27 11 35 20 35 39 0 25 14 33 25 15 3 -6 17 -7 31 -4 18 5 24 2 24 -11
0 -13 -6 -16 -21 -12 -12 3 -19 3 -16 0 6 -6 -40 -132 -55 -150 -6 -8 -4 -20
8 -38 19 -29 11 -48 -9 -21 -13 18 -52 17 -112 -2 -23 -8 -25 -11 -10 -12 11
-1 23 -2 26 -2 13 2 19 -49 9 -68 -13 -24 -45 -28 -36 -5 3 8 1 15 -4 15 -6 0
-10 11 -10 25 0 16 -6 25 -15 25 -8 0 -15 -4 -15 -10 0 -5 5 -10 10 -10 6 0
10 -9 10 -20 0 -20 -26 -28 -32 -10 -5 16 -152 64 -156 51 -6 -18 -46 -13 -59
8 -13 21 -8 31 18 31 10 0 27 12 39 28 l22 27 -21 3 c-25 4 -43 34 -35 56 4
10 1 16 -9 16 -8 0 -18 7 -21 16 -9 25 3 54 22 54 10 0 23 9 30 20 16 26 35
16 30 -15 -5 -25 14 -28 47 -7 19 11 19 13 3 22 -22 13 -24 40 -4 40 21 0 29
17 17 37 -10 20 4 57 19 48 5 -3 12 -26 16 -51z m-414 31 c0 -5 -5 -11 -11
-13 -6 -2 -11 4 -11 13 0 9 5 15 11 13 6 -2 11 -8 11 -13z m543 -24 c3 -5 1
-12 -5 -16 -5 -3 -10 1 -10 9 0 18 6 21 15 7z m-249 -13 c4 -6 -1 -17 -12 -25
-15 -11 -20 -11 -32 1 -8 8 -11 19 -8 25 9 14 43 14 52 -1z m409 2 c3 -5 1
-10 -4 -10 -6 0 -11 5 -11 10 0 6 2 10 4 10 3 0 8 -4 11 -10z m-857 -61 c-2
-6 -8 -10 -13 -10 -5 0 -11 4 -13 10 -2 6 4 11 13 11 9 0 15 -5 13 -11z m-113
-19 c3 -5 1 -10 -4 -10 -6 0 -11 5 -11 10 0 6 2 10 4 10 3 0 8 -4 11 -10z
m875 1 c0 -6 -4 -13 -10 -16 -5 -3 -10 1 -10 9 0 9 5 16 10 16 6 0 10 -4 10
-9z m-790 -16 c0 -8 -7 -15 -15 -15 -8 0 -24 -9 -35 -20 -30 -30 -44 -14 -20
21 23 31 70 41 70 14z m75 -5 c3 -5 -1 -10 -9 -10 -9 0 -16 5 -16 10 0 6 4 10
9 10 6 0 13 -4 16 -10z m35 -24 c0 -3 -4 -8 -10 -11 -5 -3 -10 -1 -10 4 0 6 5
11 10 11 6 0 10 -2 10 -4z m230 -36 c0 -5 -4 -10 -10 -10 -5 0 -10 5 -10 10 0
6 5 10 10 10 6 0 10 -4 10 -10z m-325 -9 c3 -6 -4 -15 -15 -21 -16 -8 -20 -8
-20 3 0 25 23 36 35 18z m261 -26 c20 -8 33 -19 29 -24 -6 -10 -31 -5 -51 11
-7 5 -16 2 -24 -7 -7 -8 -16 -15 -21 -15 -16 0 -9 29 9 39 22 13 17 13 58 -4z
m-326 -35 c0 -5 -5 -10 -11 -10 -5 0 -7 5 -4 10 3 6 8 10 11 10 2 0 4 -4 4
-10z m1006 -28 c-8 -9 -19 -13 -22 -9 -10 9 16 38 28 31 6 -4 4 -13 -6 -22z
m-626 -27 c0 -8 -4 -15 -10 -15 -5 0 -10 7 -10 15 0 8 5 15 10 15 6 0 10 -7
10 -15z m-304 -12 c3 -10 10 -26 15 -36 14 -26 3 -34 -19 -14 -10 10 -27 17
-38 17 -16 0 -20 -7 -21 -35 -1 -19 3 -35 8 -35 5 0 9 -4 9 -10 0 -18 -19 -10
-36 15 -10 15 -13 32 -9 42 5 10 7 22 6 26 -3 13 28 39 39 32 5 -3 10 -1 10 4
0 18 30 12 36 -6z m769 -30 c-13 -55 -42 -58 -30 -4 4 18 13 31 22 31 12 0 14
-7 8 -27z m-375 -21 c0 -13 -12 -22 -22 -16 -10 6 -1 24 13 24 5 0 9 -4 9 -8z
m410 -12 c0 -5 -4 -10 -10 -10 -5 0 -10 5 -10 10 0 6 5 10 10 10 6 0 10 -4 10
-10z m525 -10 c-3 -5 -10 -10 -16 -10 -5 0 -9 5 -9 10 0 6 7 10 16 10 8 0 12
-4 9 -10z m-1065 -31 c0 -5 -4 -9 -10 -9 -5 0 -10 7 -10 16 0 8 5 12 10 9 6
-3 10 -10 10 -16z m115 -15 c18 -39 14 -55 -8 -32 -21 20 -37 54 -30 62 12 12
21 5 38 -30z m-230 -4 c3 -5 15 -10 26 -10 10 0 19 5 19 10 0 6 7 10 15 10 12
0 13 -3 3 -19 -23 -38 -79 -47 -115 -18 -18 13 -16 25 5 30 30 8 41 7 47 -3z
m-104 -46 c-2 -35 -7 -44 -20 -42 -10 2 -16 13 -16 31 1 15 -3 27 -7 27 -4 0
-8 6 -8 13 0 8 11 14 28 15 26 0 27 -1 23 -44z m59 -33 c0 -5 3 -23 6 -40 6
-28 4 -31 -12 -24 -41 15 -54 73 -17 73 13 0 23 -4 23 -9z m588 -34 c2 -10 -3
-17 -12 -17 -18 0 -29 16 -21 31 9 14 29 6 33 -14z m-58 3 c0 -5 -6 -10 -14
-10 -8 0 -18 5 -21 10 -3 6 3 10 14 10 12 0 21 -4 21 -10z m-470 -15 c0 -8 -4
-15 -10 -15 -5 0 -10 7 -10 15 0 8 5 15 10 15 6 0 10 -7 10 -15z m215 6 c3 -5
1 -12 -5 -16 -5 -3 -10 1 -10 9 0 18 6 21 15 7z m-365 -31 c0 -5 -2 -10 -4
-10 -3 0 -8 5 -11 10 -3 6 -1 10 4 10 6 0 11 -4 11 -10z m564 -6 c9 -24 0 -29
-19 -11 -19 19 -19 27 -1 27 8 0 17 -7 20 -16z m-241 -30 c-3 -8 -11 -14 -18
-14 -18 0 -26 25 -12 39 14 14 38 -5 30 -25z m57 20 c0 -9 -5 -14 -12 -12 -18
6 -21 28 -4 28 9 0 16 -7 16 -16z m-150 -4 c0 -5 -4 -10 -10 -10 -5 0 -10 5
-10 10 0 6 5 10 10 10 6 0 10 -4 10 -10z m216 -5 c-8 -8 -18 -15 -22 -15 -3 0
-1 7 6 15 7 8 17 15 22 15 5 0 3 -7 -6 -15z m-312 -10 c-4 -8 -2 -15 4 -15 6
0 15 -13 20 -29 10 -28 9 -29 -24 -36 -19 -3 -39 -3 -44 0 -6 3 -10 0 -10 -7
-1 -9 -4 -8 -10 3 -14 24 24 99 50 99 13 0 18 -5 14 -15z m56 5 c0 -5 -5 -10
-11 -10 -5 0 -7 5 -4 10 3 6 8 10 11 10 2 0 4 -4 4 -10z m187 -47 c0 -21 -2
-30 -4 -20 -4 14 -11 17 -29 13 -20 -5 -24 -3 -24 15 0 17 5 20 25 17 14 -3
25 -1 25 3 0 5 2 9 3 9 2 0 4 -17 4 -37z m-107 -30 c-1 -16 -30 -46 -37 -38
-5 4 -2 10 5 12 6 3 12 11 12 19 0 8 5 14 10 14 6 0 10 -3 10 -7z m1140 -3 c0
-5 -4 -10 -10 -10 -5 0 -10 5 -10 10 0 6 5 10 10 10 6 0 10 -4 10 -10z m47
-26 c9 -25 -12 -38 -31 -19 -9 9 -14 21 -11 26 10 14 35 10 42 -7z m-1325 -13
c-14 -14 -12 -16 25 -24 43 -8 68 -37 33 -37 -10 0 -22 -5 -25 -10 -4 -6 -24
8 -46 30 -44 45 -44 57 0 57 26 0 28 -2 13 -16z m198 -6 c0 -8 -4 -15 -10 -15
-5 0 -10 7 -10 15 0 8 5 15 10 15 6 0 10 -7 10 -15z m-480 -56 c0 -6 -9 -13
-21 -16 -15 -4 -17 -8 -7 -14 7 -5 22 -2 35 7 25 16 30 5 13 -27 -6 -10 -20
-19 -31 -19 -22 0 -45 40 -36 64 7 18 47 22 47 5z m290 -29 c0 -5 -2 -10 -4
-10 -3 0 -8 5 -11 10 -3 6 -1 10 4 10 6 0 11 -4 11 -10z m-5 -60 c3 -5 -3 -10
-14 -10 -12 0 -21 5 -21 10 0 6 6 10 14 10 8 0 18 -4 21 -10z m-12 -44 c6 -16
-2 -28 -14 -20 -12 7 -11 34 0 34 5 0 11 -6 14 -14z m685 -5 c3 -8 -1 -12 -9
-9 -7 2 -15 10 -17 17 -3 8 1 12 9 9 7 -2 15 -10 17 -17z m535 -45 c-18 -26
-43 -35 -43 -16 0 6 11 15 25 20 14 5 25 15 25 21 0 7 3 10 6 6 3 -3 -2 -17
-13 -31z m-508 -7 c-4 -18 -2 -36 5 -44 6 -8 9 -19 5 -25 -9 -15 -35 -12 -41
5 -4 8 -18 15 -33 15 l-26 0 25 20 c14 11 21 20 17 20 -18 0 13 36 33 37 19 2
21 -2 15 -28z m645 21 c0 -5 -4 -10 -10 -10 -5 0 -10 5 -10 10 0 6 5 10 10 10
6 0 10 -4 10 -10z m-80 -10 c0 -5 -4 -10 -10 -10 -5 0 -10 5 -10 10 0 6 5 10
10 10 6 0 10 -4 10 -10z m20 -20 c0 -5 -5 -10 -11 -10 -5 0 -7 5 -4 10 3 6 8
10 11 10 2 0 4 -4 4 -10z m-80 -45 c0 -8 -7 -15 -15 -15 -16 0 -20 12 -8 23
11 12 23 8 23 -8z m-1220 -15 c0 -11 -4 -20 -9 -20 -14 0 -23 18 -16 30 10 17
25 11 25 -10z m790 10 c0 -5 -4 -10 -10 -10 -5 0 -10 5 -10 10 0 6 5 10 10 10
6 0 10 -4 10 -10z m-870 -25 c0 -8 -7 -15 -15 -15 -16 0 -20 12 -8 23 11 12
23 8 23 -8z m630 -5 c0 -5 -5 -10 -11 -10 -5 0 -7 5 -4 10 3 6 8 10 11 10 2 0
4 -4 4 -10z m-76 -61 c-3 -5 -10 -7 -15 -3 -5 3 -7 10 -3 15 3 5 10 7 15 3 5
-3 7 -10 3 -15z"/>
<path d="M870 1118 c0 -21 11 -23 28 -6 17 17 15 24 -8 24 -13 0 -20 -7 -20
-18z"/>
<path d="M1255 931 c-3 -5 -1 -12 5 -16 5 -3 10 1 10 9 0 18 -6 21 -15 7z"/>
</g>
</svg>
